<?xml version="1.0" encoding="UTF-8" standalone="no"?>
<svg
   viewBox="0 0 164.15 25.84"
   version="1.1"
   id="svg13"
   sodipodi:docname="logo.svg"
   inkscape:version="1.4 (e7c3feb100, 2024-10-09)"
   xmlns:inkscape="http://www.inkscape.org/namespaces/inkscape"
   xmlns:sodipodi="http://sodipodi.sourceforge.net/DTD/sodipodi-0.dtd"
   xmlns="http://www.w3.org/2000/svg"
   xmlns:svg="http://www.w3.org/2000/svg">
  <sodipodi:namedview
     id="namedview13"
     pagecolor="#ffffff"
     bordercolor="#000000"
     borderopacity="0.25"
     inkscape:showpageshadow="2"
     inkscape:pageopacity="0.0"
     inkscape:pagecheckerboard="0"
     inkscape:deskcolor="#d1d1d1"
     inkscape:zoom="8.1510816"
     inkscape:cx="82.074997"
     inkscape:cy="12.943068"
     inkscape:window-width="1920"
     inkscape:window-height="1043"
     inkscape:window-x="0"
     inkscape:window-y="0"
     inkscape:window-maximized="1"
     inkscape:current-layer="svg13" />
  <defs
     id="defs1">
    <style
       id="style1">.cls-1{fill:#1d1d1b;}</style>
  </defs>
  <g
     id="Layer_2"
     data-name="Layer 2">
    <g
       id="Layer_1-2"
       data-name="Layer 1">
      <path
         class="cls-1"
         d="M145.24,0a6.8,6.8,0,0,0-6.09,3.77l-.33.65L134.53,13a3.64,3.64,0,0,0,3.24,5.27l9.33,0-.87,1.87A1.31,1.31,0,0,1,145,21H59.28a3.12,3.12,0,0,0,2.85,4.41H147.3a3.7,3.7,0,0,0,3.36-2.15l8.71-18.8h.71a3.3,3.3,0,0,0,3-2l1-2.42Zm7.12,7-2,4.41-.65,1.42a1.93,1.93,0,0,1-1.74,1.11h-6.48a.94.94,0,0,1-.85-1.36l.58-1.17L143.39,7l.47-1a2.87,2.87,0,0,1,2.56-1.59h7.12Z"
         id="path1" />
      <path
         class="cls-1"
         d="M113.9,0,112,4.52h2.38A1,1,0,0,1,115.23,6l-6.36,12.71,3.16,0v0h2.78l6.29-12.57a3,3,0,0,1,2.67-1.66H128A1.74,1.74,0,0,1,129.57,7l-5.82,11.63,5.94.08,5.74-11.49A5,5,0,0,0,131,.05Z"
         id="path2" />
      <path
         class="cls-1"
         d="M112.35,0l-1.94,4.52h-.9a1.16,1.16,0,0,0-1,.65l-1,1.94-2.26,4.52-.65,1.3h-6l.65-1.3,2.26-4.52,1.3-2.59L104.07,2a3.65,3.65,0,0,1,3.26-2Z"
         id="path3" />
      <path
         class="cls-1"
         d="M63.39,0a3.09,3.09,0,0,0,2.76,4.47h9.74l-1.3,2.6h-14a6.84,6.84,0,0,0-6.12,3.78l-2.49,5a2,2,0,0,0,1.76,2.88l0,0H74.81l4.07-8.24,0-.08h0l.45-.91,1.21-2.43,1.31-2.6L84.12,0ZM71,14.21H59.21a.26.26,0,0,1-.23-.37l.36-.73a2.72,2.72,0,0,1,2.44-1.51H72.33Z"
         id="path4" />
      <path
         class="cls-1"
         d="M85.59,12.75,89,5.94a2.56,2.56,0,0,1,2.29-1.41h5.9a5.52,5.52,0,0,0,5.07-3.35L102.77,0H89.49a5.65,5.65,0,0,0-5.06,3.12l-5.51,11a3.14,3.14,0,0,0,2.8,4.54l21.8,0a4,4,0,0,0,3.76-2.47l.88-2H86.51A1,1,0,0,1,85.59,12.75Z"
         id="path5" />
      <path
         class="cls-1"
         d="M27.13,0l-1,0H14.36A5,5,0,0,0,9.87,2.79L7.7,7.13H.33a3.12,3.12,0,0,0,2.79,4.52H24.38a3.13,3.13,0,0,0,2.79-1.72l1.4-2.8,1.29-2.59v0A3.1,3.1,0,0,0,27.13,0Zm-4,6-.25.5a1,1,0,0,1-.94.58H13.68l.94-1.89a1.26,1.26,0,0,1,1.14-.7h6.43A1,1,0,0,1,23.13,6.05ZM10.58,13.33l.39-.78H5l-.35.71A3.77,3.77,0,0,0,8,18.72l11.12,0a5.85,5.85,0,0,0,5.25-3.22L25,14.25H11.14A.63.63,0,0,1,10.58,13.33Z"
         id="path6" />
      <path
         class="cls-1"
         d="M52.61.27H34.67l-.58,1.16L34,1.54,30.63,8.35l-2.39,4.77-.16.31-2.5,5.26H32l2.68-5.38.1-.06h7.17a2,2,0,0,1,1.72.88A1.92,1.92,0,0,1,43.72,16L42.5,18.69l6.48.07,1.13-2.49.36-.73,1.13-2.27L52,12.5a1.21,1.21,0,0,0-1.08-1.75h.26a2.74,2.74,0,0,0,2.45-1.52L53.74,9l.45-.91V8A35.32,35.32,0,0,0,56,3.7,3.44,3.44,0,0,0,52.61.27ZM48.26,6.93l-.38.75a1.23,1.23,0,0,1-1.09.67h-10l1.6-3.2h8.83a1.23,1.23,0,0,1,1.09,1.78Z"
         id="path7" />
      <path
         class="cls-1"
         d="M3.94,25.71l1.82-3.55H3.29l.44-.86A.61.61,0,0,1,4.28,21H11.5l-.44.86a.63.63,0,0,1-.56.34H8.4l-1.54,3a1,1,0,0,1-.86.53Z"
         id="path8" />
      <path
         class="cls-1"
         d="M9.84,25.71,12.27,21h7.24l-.28.54a1.14,1.14,0,0,1-1,.63H14.32l-.29.56h3.72l-.28.55a1.15,1.15,0,0,1-1,.62h-3l-.32.63h4.82l-.31.59a1.13,1.13,0,0,1-1,.63Z"
         id="path9" />
      <path
         class="cls-1"
         d="M25.53,23h2.75a1.11,1.11,0,0,0-.43-1.57,6,6,0,0,0-3-.55,9.67,9.67,0,0,0-3.76.63A4,4,0,0,0,19,23.34c-.43.82-.36,1.45.2,1.87a5.51,5.51,0,0,0,3.12.63,10.12,10.12,0,0,0,3.43-.51,4.35,4.35,0,0,0,2.13-1.48H25.28a1.09,1.09,0,0,0-.72.23,2.09,2.09,0,0,1-.56.34,2.86,2.86,0,0,1-1.09.2,1.46,1.46,0,0,1-1.13-.33c-.19-.22-.18-.54,0-.95a2.21,2.21,0,0,1,.94-.95,3.07,3.07,0,0,1,1.47-.33,1.41,1.41,0,0,1,.93.23.47.47,0,0,1,.14.53C25.28,22.92,25.29,23,25.53,23Z"
         id="path10" />
      <path
         class="cls-1"
         d="M27.87,25.71,30.3,21h2.53a.94.94,0,0,1,.85.55l1,2.19L36.07,21h2.56L36.2,25.71H33.8A.94.94,0,0,1,33,25.2l-1.18-2.27-1.43,2.78Z"
         id="path11" />
      <path
         class="cls-1"
         d="M41.64,21a.69.69,0,0,1,.62,1l-.67,1.31c-.24.48-.31.81-.2,1s.43.27.94.27a2.37,2.37,0,0,0,1.22-.27,2.5,2.5,0,0,0,.81-1l1-1.94A.68.68,0,0,1,46,21H48.2l-1.28,2.5A3.91,3.91,0,0,1,45,25.27a8.26,8.26,0,0,1-3.36.57,4.5,4.5,0,0,1-2.76-.58c-.46-.38-.48-1-.06-1.8L40.13,21Z"
         id="path12" />
      <path
         class="cls-1"
         d="M47.26,25.71,49.69,21h2.53a1,1,0,0,1,.85.55l1,2.19L55.46,21H58l-2.43,4.75h-2.4a.94.94,0,0,1-.83-.51l-1.18-2.27-1.43,2.78Z"
         id="path13" />
    </g>
  </g>
  <path
     style="fill:#ffffff;stroke-width:0.122683"
     d="M 2.2872733,11.45292 C 0.67988382,10.99031 -0.27501826,9.2482212 0.20344387,7.651257 L 0.3455462,7.1769616 4.0372909,7.1762129 7.7290356,7.175464 9.0172082,4.6502718 C 10.176069,2.3785673 10.381526,2.0534789 11.063927,1.4118097 11.547308,0.95728075 12.081352,0.59409303 12.536124,0.41061153 L 13.249775,0.1226831 20.338109,0.08819522 c 4.707928,-0.02290615 7.250264,0.009115 7.570523,0.09535191 1.240937,0.33414937 2.21007,1.63158857 2.21007,2.95875767 0,0.6593975 -0.106111,0.9190423 -1.607964,3.9345312 -1.207928,2.4253352 -1.726857,3.341836 -2.08586,3.683927 -0.905159,0.862519 -0.464387,0.834084 -12.737308,0.821726 C 7.0217695,11.575777 2.5370496,11.524806 2.2872733,11.45292 Z M 22.43356,7.0399056 c 0.358144,-0.1631814 0.937571,-1.1726099 0.937571,-1.6333572 0,-0.1829203 -0.132348,-0.4587 -0.301131,-0.6274839 l -0.301131,-0.3011312 -3.778083,0.00273 c -3.393357,0.00245 -3.804992,0.024313 -4.042354,0.2146954 -0.251259,0.2015285 -1.269266,2.091304 -1.269266,2.3561986 0,0.1818309 8.35415,0.1707138 8.754394,-0.01165 z"
     id="path14" />
  <path
     style="fill:#ffffff;stroke-width:0.122683"
     d="m 43.353284,18.596537 -0.689951,-0.07139 0.65761,-1.472197 c 0.724181,-1.621233 0.808543,-2.182289 0.433331,-2.88191 -0.13424,-0.250304 -0.444134,-0.538915 -0.755394,-0.703514 -0.517087,-0.273442 -0.606882,-0.279094 -4.433806,-0.279094 h -3.906029 l -1.350582,2.699028 -1.350582,2.699028 h -3.119927 -3.119927 l 0.492395,-1.073477 c 0.270817,-0.590412 2.293086,-4.703363 4.493929,-9.1398911 l 4.001534,-8.06641414 h 9.09367 c 7.713541,0 9.187428,0.0278428 9.711435,0.18345633 1.201763,0.35688531 2.36696,1.78251971 2.369966,2.89968551 0.0014,0.5151728 -0.293754,1.3343801 -1.340439,3.7205947 -1.210925,2.7606499 -1.600613,3.2232267 -2.961142,3.5150077 -0.603348,0.129395 -0.637084,0.153208 -0.361485,0.255159 0.450506,0.166653 0.714668,0.448268 0.804609,0.857766 0.06676,0.303973 -0.177376,0.89225 -1.465243,3.530642 -0.849946,1.741242 -1.545356,3.227604 -1.545356,3.303024 0,0.145609 -4.30786,0.164256 -5.658616,0.02449 z M 47.41702,8.2468259 c 0.172599,-0.086297 0.486227,-0.4920557 0.717269,-0.9279718 0.493486,-0.931076 0.463179,-1.4248445 -0.117438,-1.913402 L 47.64356,5.0913488 h -4.651667 -4.651667 l -0.798318,1.5931286 c -0.439075,0.8762207 -0.798318,1.6215205 -0.798318,1.6562219 0,0.034701 2.332512,0.062279 5.183361,0.061285 3.898175,-0.00136 5.259407,-0.039831 5.490069,-0.1551584 z"
     id="path15" />
  <path
     style="fill:#ffffff;stroke-width:0.122683"
     d="M 7.3418165,18.585014 C 6.1148757,18.333598 4.9253611,17.295225 4.5419598,16.140912 4.242453,15.239181 4.3324907,14.078237 4.7685621,13.219105 l 0.3269201,-0.644087 h 2.8841368 2.884137 l -0.187175,0.361957 c -0.224268,0.433686 -0.243164,1.005178 -0.03996,1.208387 0.111079,0.111078 1.872962,0.14722 7.176962,0.14722 3.866358,0 7.029742,0.03333 7.029742,0.07407 0,0.225164 -0.958117,1.84448 -1.364521,2.306179 -0.619953,0.704305 -1.673787,1.396292 -2.609899,1.713763 -0.713599,0.242007 -1.037873,0.255125 -6.883035,0.278438 -3.373785,0.01346 -6.3636112,-0.02255 -6.6440575,-0.08002 z"
     id="path16" />
  <path
     style="fill:#ffffff;stroke-width:0.122683"
     d="m 4.109884,25.639134 c 0,-0.03464 0.3868204,-0.835145 0.8596009,-1.778905 L 5.8290858,22.1443 H 4.5989422 3.3687986 l 0.2426337,-0.475601 c 0.1334485,-0.261581 0.3323117,-0.510014 0.4419182,-0.552074 0.3063843,-0.117571 7.2948365,-0.09068 7.2948365,0.02807 0,0.0575 -0.126263,0.292128 -0.280585,0.521403 l -0.280584,0.416863 -1.2222836,0.0354 -1.2222833,0.0354 -0.7850455,1.534281 c -0.431775,0.843855 -0.922285,1.642234 -1.0900221,1.774176 -0.2474532,0.194647 -0.4985452,0.239894 -1.331238,0.239894 -0.5644438,0 -1.0262615,-0.02834 -1.0262615,-0.06298 z"
     id="path17" />
  <path
     style="fill:#ffffff;stroke-width:0.122683"
     d="m 9.998673,25.62394 c 0,-0.04299 0.527676,-1.091934 1.172613,-2.330979 l 1.172613,-2.252809 h 3.489345 c 1.91914,0 3.489345,0.02501 3.489345,0.05557 0,0.03056 -0.06596,0.200326 -0.146568,0.37725 -0.26721,0.586463 -0.633147,0.671329 -2.894725,0.671329 h -2.072012 l -0.139746,0.306708 -0.139745,0.306708 h 1.837616 c 1.25466,0 1.837617,0.04281 1.837617,0.134951 0,0.07422 -0.187706,0.322657 -0.417123,0.552074 L 16.77078,23.861864 H 15.1164 c -1.622996,0 -1.658139,0.0057 -1.852515,0.302391 -0.108974,0.166315 -0.198134,0.331938 -0.198134,0.36805 0,0.03611 1.081626,0.06566 2.403613,0.06566 h 2.403614 l -0.232704,0.398446 c -0.398462,0.68226 -0.516789,0.701918 -4.237145,0.703894 -1.872451,9.95e-4 -3.404456,-0.03337 -3.404456,-0.07636 z"
     id="path18" />
  <path
     style="fill:#ffffff;stroke-width:0.122683"
     d="m 20.610762,25.650082 c -1.390038,-0.34862 -1.778905,-0.658374 -1.778905,-1.416991 0,-0.766943 0.947191,-1.992923 1.933979,-2.503211 0.723803,-0.374293 2.195467,-0.701994 3.47616,-0.774051 2.613245,-0.147031 4.344571,0.555669 4.10103,1.664501 l -0.08407,0.382752 h -1.268391 c -1.426098,0 -1.656508,-0.05205 -1.656508,-0.374218 0,-0.35857 -0.480967,-0.607247 -1.17448,-0.607247 -1.209783,0 -2.108152,0.512617 -2.445243,1.395278 -0.261943,0.68589 -0.120189,0.993976 0.549687,1.194675 0.615487,0.184405 1.691953,-0.01168 2.250228,-0.409886 0.339304,-0.242021 0.57111,-0.283876 1.770602,-0.319707 0.892674,-0.02666 1.380185,0.0035 1.380185,0.08526 0,0.245147 -1.404898,1.128704 -2.17088,1.365292 -1.513947,0.467611 -3.714516,0.610707 -4.883398,0.317552 z"
     id="path19" />
  <path
     style="fill:#ffffff;stroke-width:0.122683"
     d="m 53.280212,18.587912 c -0.83853,-0.25277 -1.4466,-1.07932 -1.4466,-1.966367 0,-0.222896 0.603883,-1.567528 1.550433,-3.452266 1.461919,-2.910919 1.600248,-3.137105 2.422991,-3.9618797 0.504534,-0.5057797 1.187242,-1.0392103 1.61865,-1.2647238 1.470532,-0.768704 1.432732,-0.7657139 9.679779,-0.7657139 h 7.491266 L 75.238115,5.8873141 C 75.590877,5.178008 75.8795,4.5431229 75.8795,4.4764584 c 0,-0.077922 -1.863442,-0.1212082 -5.217972,-0.1212082 -5.710721,0 -5.63076,0.00912 -6.483744,-0.7398066 C 63.318868,2.8613055 62.94743,1.6695886 63.242649,0.61516963 L 63.397712,0.06134155 H 73.67804 83.958369 L 79.34218,9.3852575 74.725991,18.709173 64.169254,18.698629 c -5.806206,-0.0058 -10.706274,-0.05562 -10.889042,-0.110717 z m 18.397392,-5.565973 c 0.354247,-0.698242 0.644086,-1.305273 0.644086,-1.348958 0,-0.04368 -2.54174,-0.07943 -5.64831,-0.07943 -5.317164,0 -5.674996,0.01373 -6.103485,0.234131 -0.975377,0.50171 -1.934685,1.987298 -1.538874,2.383109 0.04498,0.04498 2.763948,0.08154 6.042143,0.08123 l 5.960354,-5.55e-4 z"
     id="path20" />
  <path
     style="fill:#ffffff;stroke-width:0.122683"
     d="m 47.41702,25.627084 c 0,-0.04126 0.528412,-1.090206 1.174249,-2.330979 l 1.174249,-2.255953 h 1.32421 c 1.643315,0 1.733827,0.05972 2.3962,1.580957 0.267754,0.61494 0.529528,1.118072 0.58172,1.118072 0.05219,0 0.399456,-0.607282 0.7717,-1.349514 l 0.676806,-1.349515 h 1.164465 c 0.640456,0 1.164465,0.02961 1.164465,0.06581 0,0.03619 -0.529192,1.085135 -1.175983,2.330979 l -1.175982,2.265171 h -1.250382 c -0.940224,0 -1.318924,-0.04801 -1.526704,-0.193543 -0.151977,-0.106449 -0.552345,-0.743584 -0.889707,-1.415855 -0.337361,-0.672271 -0.653157,-1.197471 -0.701769,-1.167112 -0.04861,0.03036 -0.390023,0.667494 -0.758692,1.415855 l -0.670306,1.360655 h -1.13927 c -0.626598,0 -1.139269,-0.03376 -1.139269,-0.07503 z"
     id="path21" />
  <path
     style="fill:#ffffff;stroke-width:0.122683"
     d="m 40.14614,25.699837 c -0.790443,-0.200819 -1.42946,-0.589284 -1.512299,-0.919342 -0.115252,-0.459201 0.02109,-0.848695 0.826183,-2.360158 l 0.735166,-1.380185 h 0.761906 c 0.783879,0 1.307234,0.220156 1.307234,0.549905 0,0.09237 -0.22083,0.624589 -0.490733,1.182714 -0.775313,1.603248 -0.661878,1.883347 0.730849,1.804651 1.153926,-0.0652 1.387157,-0.262092 2.233883,-1.885804 0.382302,-0.733116 0.793107,-1.404606 0.912901,-1.492202 0.216579,-0.158366 2.379205,-0.238416 2.379205,-0.08807 0,0.03916 -0.306427,0.670258 -0.680948,1.402443 -1.004832,1.964432 -1.680715,2.567179 -3.369329,3.004744 -0.930037,0.240996 -3.180226,0.347402 -3.834018,0.181301 z"
     id="path22" />
  <path
     style="fill:#ffffff;stroke-width:0.122683"
     d="m 28.035358,25.610098 c 0.0012,-0.05061 0.520992,-1.085745 1.154987,-2.300308 l 1.152718,-2.208296 1.348628,-0.03458 c 1.259235,-0.03229 1.368624,-0.01603 1.650289,0.245366 0.165914,0.153972 0.513745,0.763013 0.772959,1.353426 0.259214,0.590412 0.514582,1.073477 0.567485,1.073477 0.0529,0 0.400749,-0.607282 0.772993,-1.349514 l 0.676807,-1.349515 h 1.164465 c 0.640455,0 1.164464,0.03376 1.164464,0.07503 0,0.04126 -0.530931,1.095045 -1.179847,2.341734 l -1.179847,2.266706 -1.264242,-0.04143 c -1.534922,-0.05029 -1.604166,-0.09945 -2.385425,-1.69334 -0.298825,-0.60965 -0.573367,-1.108144 -0.610093,-1.107763 -0.03673,3.8e-4 -0.398019,0.634546 -0.802874,1.409257 l -0.736098,1.408567 -1.134819,0.0016 c -0.62415,8.79e-4 -1.133798,-0.03981 -1.13255,-0.09041 z"
     id="path23" />
  <path
     style="fill:#ffffff;stroke-width:0.122683"
     d="m 80.908713,18.473093 c -1.346562,-0.414994 -2.199392,-1.568589 -2.204807,-2.98237 -0.0026,-0.676209 0.118054,-0.944911 3.116025,-6.9400701 3.043134,-6.0854755 3.136548,-6.2531323 3.854398,-6.9177346 0.404624,-0.3746103 0.988994,-0.80373701 1.2986,-0.95361481 1.248614,-0.6044435 1.397804,-0.61495437 8.750563,-0.61650582 3.795509,-8.0087e-4 6.900928,0.0359175 6.900928,0.08159636 0,0.0456788 -0.21848,0.53441708 -0.4855,1.08608497 -0.76238,1.5750728 -2.03179,2.624607 -3.717127,3.0732698 -0.476643,0.1268899 -1.533515,0.1718269 -4.078486,0.1734126 -2.003718,0.00125 -3.627359,0.055525 -3.896451,0.1302545 -0.922315,0.2561356 -1.289819,0.7870822 -3.205977,4.6317945 -1.062501,2.1318756 -1.792097,3.7398666 -1.792097,3.9496886 0,0.197214 0.131076,0.506302 0.296054,0.698122 l 0.296053,0.344219 10.985273,0.06134 10.985268,0.06134 -0.55643,1.243268 c -0.62259,1.391093 -1.2021,2.079073 -2.1929,2.603363 l -0.61341,0.324595 -11.716238,0.02136 c -6.44393,0.01175 -11.854613,-0.02129 -12.023739,-0.07341 z"
     id="path24" />
  <path
     style="fill:#ffffff;stroke-width:0.122683"
     d="M 61.126608,25.159381 C 59.650848,24.631585 58.728112,22.883008 59.188771,21.4872 l 0.147539,-0.447048 h 42.99701 c 38.86938,0 43.03283,-0.01853 43.37025,-0.193011 0.28778,-0.148822 0.49705,-0.459777 0.91403,-1.358172 0.29743,-0.640837 0.54078,-1.188868 0.54078,-1.217844 0,-0.02898 -2.19827,-0.05268 -4.88505,-0.05268 -4.00025,0 -4.99464,-0.03345 -5.49007,-0.18468 -1.52328,-0.464981 -2.53727,-1.846945 -2.53727,-3.458038 v -0.827126 l 2.70991,-5.4215048 c 2.60223,-5.2060649 2.74108,-5.4526695 3.49414,-6.2057351 0.46777,-0.4677713 1.13063,-0.9662561 1.64265,-1.23531795 1.59475,-0.83801682 1.34127,-0.8208684 12.16377,-0.82288421 7.73982,-0.0014416 9.7233,0.02962588 9.67497,0.15154049 -0.0334,0.0843446 -0.29627,0.72133268 -0.58409,1.41552897 -0.79821,1.925227 -1.60332,2.6040725 -3.20416,2.7016585 l -0.81706,0.049807 -4.45832,9.6297291 c -2.73828,5.914535 -4.60699,9.803975 -4.84369,10.081372 -0.21195,0.248406 -0.68121,0.615509 -1.0428,0.815787 l -0.65744,0.364142 -43.36847,0.02564 c -36.017019,0.0213 -43.44651,-0.0023 -43.828792,-0.138983 z M 148.99863,13.716805 c 0.23617,-0.147989 0.50284,-0.388985 0.59262,-0.535547 0.24403,-0.398396 3.94666,-8.5765275 3.94666,-8.7171312 0,-0.078237 -1.42658,-0.1082109 -4.01788,-0.084421 -4.39716,0.040369 -4.3335,0.030305 -5.12369,0.8099804 -0.51055,0.5037663 -3.86284,7.2679848 -3.86284,7.7944118 0,0.48342 0.27684,0.904261 0.64516,0.980755 0.15123,0.03141 1.87597,0.04898 3.83277,0.03906 3.43389,-0.01741 3.57277,-0.02741 3.9872,-0.287108 z"
     id="path25" />
  <path
     style="fill:#ffffff;stroke-width:0.122683"
     d="m 98.821241,12.75852 c 0,-0.03403 1.264879,-2.591156 2.810849,-5.6825144 3.69052,-7.37968508 3.20191,-6.93297274 7.64789,-6.99201942 1.60254,-0.02128331 2.91372,-0.01243033 2.91372,0.0196733 0,0.0321036 -0.40965,1.01564672 -0.91034,2.18565132 l -0.91034,2.127281 -0.67216,0.061799 c -0.43101,0.039626 -0.76975,0.1496679 -0.94413,0.3067078 -0.14958,0.1347 -1.14905,1.9977439 -2.22104,4.1400977 l -1.94909,3.8951877 h -2.88268 c -1.58547,0 -2.882679,-0.02784 -2.882679,-0.06186 z"
     id="path26" />
  <path
     style="fill:#ffffff;stroke-width:0.122683"
     d="m 109.00394,18.647369 c 0,-0.03399 1.43539,-2.932172 3.18976,-6.4404 2.07925,-4.1579007 3.18976,-6.5088339 3.18976,-6.7526844 0,-0.2336032 -0.11309,-0.4871758 -0.30113,-0.6752201 -0.28302,-0.283018 -0.38186,-0.3011312 -1.64327,-0.3011312 h -1.34213 l 0.92771,-2.2082959 0.92772,-2.20829585 h 8.55052 c 5.21027,0 8.80868,0.04817922 9.21136,0.12333092 2.79003,0.52070306 4.66944,3.33102513 3.99311,5.97098543 -0.11594,0.4525477 -1.38286,3.1345284 -3.14903,6.6662771 -2.30386,4.606941 -2.99656,5.893175 -3.1434,5.836829 -0.10358,-0.03975 -1.3985,-0.07227 -2.87758,-0.07227 h -2.68925 l 2.92637,-5.858118 c 1.6095,-3.2219649 2.96376,-6.0120069 3.00947,-6.2000931 0.12284,-0.5054179 -0.11429,-1.2156776 -0.54314,-1.626798 l -0.37782,-0.362206 -2.92853,-0.036815 c -2.91523,-0.036648 -2.93128,-0.035421 -3.53402,0.2700055 -0.33301,0.1687514 -0.75358,0.4828289 -0.93459,0.69795 -0.18101,0.2151212 -1.77542,3.2817617 -3.54312,6.8147566 l -3.21401,6.423627 -2.85238,1.87e-4 c -1.56881,1.03e-4 -2.85238,-0.02763 -2.85238,-0.06162 z"
     id="path27" />
</svg>
