<?xml version="1.0" encoding="UTF-8" standalone="no"?>
<svg
   viewBox="0 0 64.000002 64"
   version="1.1"
   id="svg13"
   sodipodi:docname="favicon.svg"
   width="64"
   height="64"
   inkscape:version="1.4 (e7c3feb100, 2024-10-09)"
   inkscape:export-filename="favicon.png"
   inkscape:export-xdpi="96"
   inkscape:export-ydpi="96"
   xmlns:inkscape="http://www.inkscape.org/namespaces/inkscape"
   xmlns:sodipodi="http://sodipodi.sourceforge.net/DTD/sodipodi-0.dtd"
   xmlns="http://www.w3.org/2000/svg"
   xmlns:svg="http://www.w3.org/2000/svg">
  <sodipodi:namedview
     id="namedview13"
     pagecolor="#ffffff"
     bordercolor="#000000"
     borderopacity="0.25"
     inkscape:showpageshadow="2"
     inkscape:pageopacity="0.0"
     inkscape:pagecheckerboard="0"
     inkscape:deskcolor="#d1d1d1"
     inkscape:zoom="11.313709"
     inkscape:cx="24.748736"
     inkscape:cy="45.829356"
     inkscape:window-width="1854"
     inkscape:window-height="1011"
     inkscape:window-x="0"
     inkscape:window-y="0"
     inkscape:window-maximized="1"
     inkscape:current-layer="svg13" />
  <defs
     id="defs1">
    <style
       id="style1">.cls-1{fill:#1d1d1b;}</style>
  </defs>
  <g
     id="g23"
     transform="translate(-0.69872406,0.55097159)">
    <path
       style="fill:#a78c57;fill-opacity:1;stroke-width:0.0441942"
       d="M 19.555921,31.445207 C 18.90401,31.300812 18.304172,30.956408 17.876358,30.480863 17.6011,30.174896 17.27524,29.561382 17.167392,29.146057 c -0.10398,-0.40043 -0.09494,-1.078816 0.01996,-1.497626 0.05201,-0.189567 0.124453,-0.402476 0.16099,-0.473132 l 0.06643,-0.128465 3.67803,-6.8e-5 3.67803,-6.7e-5 1.155374,-2.309078 c 0.635455,-1.269993 1.26147,-2.466087 1.391143,-2.657986 0.69333,-1.026042 1.812559,-1.772047 3.110338,-2.073149 0.392159,-0.09099 0.489945,-0.0925 6.960582,-0.107734 4.201727,-0.0099 6.722469,5.69e-4 7.006549,0.02908 0.828691,0.08316 1.367536,0.335709 1.948054,0.913033 0.632294,0.628815 0.931278,1.401418 0.888044,2.294789 -0.01518,0.313631 -0.0547,0.540948 -0.136136,0.782953 -0.160212,0.476122 -2.932523,6.004317 -3.177634,6.336441 -0.36877,0.49968 -0.928724,0.900203 -1.556101,1.113044 l -0.354485,0.120261 -11.092738,0.0078 c -9.085226,0.0064 -11.140726,-0.0028 -11.357903,-0.05094 z m 19.931573,-4.5598 c 0.249625,-0.134341 0.337439,-0.241948 0.62614,-0.767266 0.236544,-0.430415 0.254677,-0.483885 0.254579,-0.750686 -1.68e-4,-0.462156 -0.220787,-0.785219 -0.646954,-0.947368 -0.170636,-0.06492 -0.542708,-0.07087 -3.725105,-0.05956 l -3.535533,0.01256 -0.220971,0.117588 c -0.121534,0.06467 -0.283682,0.183998 -0.36033,0.265165 -0.110206,0.116706 -1.164369,2.131466 -1.164369,2.225392 0,0.01294 1.934047,0.01807 4.297883,0.01142 l 4.297883,-0.0121 z"
       id="path21" />
    <path
       style="fill:#a78c57;fill-opacity:1;stroke-width:0.0441942"
       d="M 24.549863,38.549935 C 24.04104,38.479565 23.34173,38.19023 22.874287,37.856669 22.124734,37.3218 21.555496,36.402897 21.388912,35.458875 c -0.06867,-0.38917 -0.03386,-1.208772 0.06728,-1.584041 0.03931,-0.145841 0.198505,-0.528673 0.353773,-0.850738 l 0.282305,-0.585573 h 2.94132 c 1.617726,0 2.941321,0.01034 2.941321,0.02298 0,0.01264 -0.08794,0.19807 -0.195413,0.41207 -0.253405,0.50456 -0.279739,0.648271 -0.165932,0.90555 0.06565,0.148414 0.135234,0.224323 0.267473,0.291787 0.178328,0.09098 0.194761,0.09118 7.141082,0.09118 3.829289,0 6.962343,0.0117 6.962343,0.026 0,0.115458 -0.89281,1.74804 -1.123926,2.055198 -0.739486,0.982792 -1.855731,1.760054 -3.008229,2.094684 -0.852648,0.247567 -0.730417,0.243552 -7.203651,0.23665 -3.281417,-0.0035 -6.025876,-0.01461 -6.098796,-0.0247 z"
       id="path22" />
  </g>
  <g
     id="g25"
     transform="matrix(1.5951327,0,0,1.5951327,-20.68991,-15.561628)">
    <circle
       style="fill:#000000;fill-opacity:1;stroke-width:1;stroke-dasharray:none;paint-order:stroke fill markers"
       id="path23"
       cx="33.05724"
       cy="29.786875"
       r="19.975767" />
    <path
       style="fill:#ffffff;fill-opacity:1;stroke-width:0.0883883;stroke-dasharray:none;paint-order:stroke fill markers"
       d="m 18.605747,31.873518 c -0.504652,-0.158779 -0.724512,-0.290544 -1.17005,-0.701227 -0.825842,-0.761234 -1.174213,-1.962741 -0.871253,-3.004889 l 0.145892,-0.501849 h 3.689893 3.689894 l 0.42487,-0.861787 c 0.233678,-0.473982 0.828762,-1.637394 1.322409,-2.585359 0.768419,-1.475619 0.976173,-1.8012 1.44414,-2.263174 0.610311,-0.602496 1.691668,-1.190841 2.487584,-1.353445 0.312137,-0.06377 2.734255,-0.09569 7.260632,-0.09569 6.594753,0 6.809276,0.0053 7.378089,0.180949 0.477532,0.147495 0.680467,0.274145 1.097616,0.68501 0.732471,0.721439 0.942614,1.198353 0.942614,2.139244 v 0.751301 l -0.699143,1.458408 c -1.360377,2.837736 -2.558431,5.068384 -2.912824,5.423363 -0.187879,0.18819 -0.594697,0.456924 -0.90404,0.597186 l -0.562442,0.255024 -11.205163,-0.0059 C 21.4196,31.986055 18.881671,31.960332 18.605747,31.873518 Z m 20.320806,-4.482225 c 0.129964,-0.102229 0.353716,-0.390596 0.497226,-0.640815 0.512876,-0.894225 0.285502,-1.671021 -0.535481,-1.829413 -0.495271,-0.09555 -6.431083,-0.09827 -7.009365,-0.0032 -0.26493,0.04355 -0.506064,0.150585 -0.635292,0.281993 -0.185157,0.188282 -1.279991,2.171864 -1.279991,2.319044 0,0.03205 1.963486,0.05827 4.363303,0.05827 4.30063,0 4.366697,-0.0027 4.5996,-0.185871 z"
       id="path24" />
    <path
       style="fill:#ffffff;fill-opacity:1;stroke-width:0.0883883;stroke-dasharray:none;paint-order:stroke fill markers"
       d="m 23.28723,38.900961 c -0.921307,-0.331869 -1.5054,-0.780388 -1.987361,-1.526077 -0.724783,-1.12138 -0.793586,-2.330608 -0.205773,-3.616534 l 0.320485,-0.701108 h 2.899625 2.899625 l -0.219463,0.47937 c -0.148366,0.324074 -0.200778,0.553816 -0.161787,0.709169 0.128468,0.511857 -0.188114,0.49084 7.393377,0.49084 3.829656,0 6.963012,0.02102 6.963012,0.04671 0,0.02569 -0.124629,0.293604 -0.276953,0.595356 -0.785494,1.556056 -1.606597,2.441328 -2.840152,3.062112 -1.246739,0.62742 -1.201679,0.623981 -8.152409,0.622123 -5.750378,-0.0015 -6.218604,-0.01297 -6.632226,-0.161965 z"
       id="path25" />
  </g>
</svg>
